<mxfile host="app.diagrams.net" modified="2021-05-24T01:44:29.509Z" agent="5.0 (Windows NT 10.0; Win64; x64) AppleWebKit/537.36 (KHTML, like Gecko) Chrome/90.0.4430.72 Safari/537.36" etag="wjDHcUbZti8CVRPOjMh4" version="14.6.13" type="github">
  <diagram id="mlnZNj9UvRsB5_0IYkUG" name="第 1 页">
    <mxGraphModel dx="1422" dy="762" grid="1" gridSize="10" guides="1" tooltips="1" connect="1" arrows="1" fold="1" page="1" pageScale="1" pageWidth="827" pageHeight="1169" math="0" shadow="0">
      <root>
        <mxCell id="0" />
        <mxCell id="1" parent="0" />
        <mxCell id="E3upAqpC8sBwu24lGrVW-1" value="" style="rounded=0;whiteSpace=wrap;html=1;strokeWidth=1;" vertex="1" parent="1">
          <mxGeometry x="50" y="1170" width="400" height="110" as="geometry" />
        </mxCell>
        <mxCell id="E3upAqpC8sBwu24lGrVW-2" style="edgeStyle=orthogonalEdgeStyle;rounded=0;jumpSize=6;orthogonalLoop=1;jettySize=auto;html=1;exitX=0.5;exitY=1;exitDx=0;exitDy=0;entryX=0.5;entryY=0;entryDx=0;entryDy=0;strokeWidth=1;" edge="1" parent="1" source="E3upAqpC8sBwu24lGrVW-3" target="E3upAqpC8sBwu24lGrVW-5">
          <mxGeometry relative="1" as="geometry" />
        </mxCell>
        <mxCell id="E3upAqpC8sBwu24lGrVW-3" value="V3Global::readFiles()" style="rounded=1;whiteSpace=wrap;html=1;fontSize=12;glass=0;strokeWidth=1;shadow=0;" vertex="1" parent="1">
          <mxGeometry x="585" y="615" width="120" height="40" as="geometry" />
        </mxCell>
        <mxCell id="E3upAqpC8sBwu24lGrVW-4" style="edgeStyle=orthogonalEdgeStyle;rounded=0;jumpSize=6;orthogonalLoop=1;jettySize=auto;html=1;exitX=0.5;exitY=1;exitDx=0;exitDy=0;entryX=0.5;entryY=0;entryDx=0;entryDy=0;strokeWidth=1;" edge="1" parent="1" source="E3upAqpC8sBwu24lGrVW-5" target="E3upAqpC8sBwu24lGrVW-7">
          <mxGeometry relative="1" as="geometry" />
        </mxCell>
        <mxCell id="E3upAqpC8sBwu24lGrVW-5" value="创建V3Parse parser" style="rounded=1;whiteSpace=wrap;html=1;fontSize=12;glass=0;strokeWidth=1;shadow=0;" vertex="1" parent="1">
          <mxGeometry x="585" y="675" width="120" height="40" as="geometry" />
        </mxCell>
        <mxCell id="E3upAqpC8sBwu24lGrVW-6" style="edgeStyle=orthogonalEdgeStyle;rounded=0;jumpSize=6;orthogonalLoop=1;jettySize=auto;html=1;exitX=0.5;exitY=1;exitDx=0;exitDy=0;entryX=0.5;entryY=0;entryDx=0;entryDy=0;strokeWidth=1;" edge="1" parent="1" source="E3upAqpC8sBwu24lGrVW-7" target="E3upAqpC8sBwu24lGrVW-9">
          <mxGeometry relative="1" as="geometry" />
        </mxCell>
        <mxCell id="E3upAqpC8sBwu24lGrVW-7" value="parser.parseFile(.v)" style="rounded=1;whiteSpace=wrap;html=1;fontSize=12;glass=0;strokeWidth=1;shadow=0;" vertex="1" parent="1">
          <mxGeometry x="585" y="735" width="120" height="40" as="geometry" />
        </mxCell>
        <mxCell id="E3upAqpC8sBwu24lGrVW-8" style="edgeStyle=orthogonalEdgeStyle;rounded=0;jumpSize=6;orthogonalLoop=1;jettySize=auto;html=1;exitX=0.5;exitY=1;exitDx=0;exitDy=0;entryX=0.5;entryY=0;entryDx=0;entryDy=0;strokeWidth=1;" edge="1" parent="1" source="E3upAqpC8sBwu24lGrVW-9" target="E3upAqpC8sBwu24lGrVW-10">
          <mxGeometry relative="1" as="geometry" />
        </mxCell>
        <mxCell id="E3upAqpC8sBwu24lGrVW-9" value="parser.parseFile(v_lib)" style="rounded=1;whiteSpace=wrap;html=1;fontSize=12;glass=0;strokeWidth=1;shadow=0;" vertex="1" parent="1">
          <mxGeometry x="585" y="795" width="120" height="40" as="geometry" />
        </mxCell>
        <mxCell id="E3upAqpC8sBwu24lGrVW-10" value="V3LinkCells::link" style="rounded=1;whiteSpace=wrap;html=1;fontSize=12;glass=0;strokeWidth=1;shadow=0;" vertex="1" parent="1">
          <mxGeometry x="585" y="855" width="120" height="40" as="geometry" />
        </mxCell>
        <mxCell id="E3upAqpC8sBwu24lGrVW-11" style="edgeStyle=orthogonalEdgeStyle;rounded=0;jumpSize=6;orthogonalLoop=1;jettySize=auto;html=1;exitX=0.5;exitY=1;exitDx=0;exitDy=0;entryX=0.5;entryY=0;entryDx=0;entryDy=0;strokeWidth=1;" edge="1" parent="1" source="E3upAqpC8sBwu24lGrVW-12" target="E3upAqpC8sBwu24lGrVW-14">
          <mxGeometry relative="1" as="geometry" />
        </mxCell>
        <mxCell id="E3upAqpC8sBwu24lGrVW-12" value="V3Parse::parseFile()" style="rounded=1;whiteSpace=wrap;html=1;fontSize=12;glass=0;strokeWidth=1;shadow=0;" vertex="1" parent="1">
          <mxGeometry x="585" y="1030" width="120" height="40" as="geometry" />
        </mxCell>
        <mxCell id="E3upAqpC8sBwu24lGrVW-13" style="edgeStyle=orthogonalEdgeStyle;rounded=0;jumpSize=6;orthogonalLoop=1;jettySize=auto;html=1;exitX=0.5;exitY=1;exitDx=0;exitDy=0;entryX=0.5;entryY=0;entryDx=0;entryDy=0;strokeWidth=1;" edge="1" parent="1" source="E3upAqpC8sBwu24lGrVW-14" target="E3upAqpC8sBwu24lGrVW-18">
          <mxGeometry relative="1" as="geometry" />
        </mxCell>
        <mxCell id="E3upAqpC8sBwu24lGrVW-14" value="V3ParseImp::parseFile()" style="rounded=1;whiteSpace=wrap;html=1;fontSize=12;glass=0;strokeWidth=1;shadow=0;" vertex="1" parent="1">
          <mxGeometry x="575" y="1095" width="140" height="40" as="geometry" />
        </mxCell>
        <mxCell id="E3upAqpC8sBwu24lGrVW-15" style="edgeStyle=orthogonalEdgeStyle;rounded=0;orthogonalLoop=1;jettySize=auto;html=1;exitX=0;exitY=0.5;exitDx=0;exitDy=0;entryX=0;entryY=0.5;entryDx=0;entryDy=0;dashed=1;strokeWidth=1;jumpSize=6;" edge="1" parent="1" source="E3upAqpC8sBwu24lGrVW-7" target="E3upAqpC8sBwu24lGrVW-12">
          <mxGeometry relative="1" as="geometry">
            <mxPoint x="475" y="700" as="sourcePoint" />
            <mxPoint x="490" y="1045" as="targetPoint" />
          </mxGeometry>
        </mxCell>
        <mxCell id="E3upAqpC8sBwu24lGrVW-16" style="edgeStyle=orthogonalEdgeStyle;rounded=0;orthogonalLoop=1;jettySize=auto;html=1;exitX=0;exitY=0.5;exitDx=0;exitDy=0;entryX=0;entryY=0.5;entryDx=0;entryDy=0;dashed=1;strokeWidth=1;jumpSize=6;" edge="1" parent="1" source="E3upAqpC8sBwu24lGrVW-9" target="E3upAqpC8sBwu24lGrVW-12">
          <mxGeometry relative="1" as="geometry">
            <mxPoint x="595" y="765" as="sourcePoint" />
            <mxPoint x="595" y="1005" as="targetPoint" />
          </mxGeometry>
        </mxCell>
        <mxCell id="E3upAqpC8sBwu24lGrVW-17" style="edgeStyle=orthogonalEdgeStyle;rounded=0;jumpSize=6;orthogonalLoop=1;jettySize=auto;html=1;exitX=0.5;exitY=1;exitDx=0;exitDy=0;entryX=0.5;entryY=0;entryDx=0;entryDy=0;strokeWidth=1;" edge="1" parent="1" source="E3upAqpC8sBwu24lGrVW-18" target="E3upAqpC8sBwu24lGrVW-20">
          <mxGeometry relative="1" as="geometry" />
        </mxCell>
        <mxCell id="E3upAqpC8sBwu24lGrVW-18" value="V3PreShell::preproc()" style="rounded=1;whiteSpace=wrap;html=1;fontSize=12;glass=0;strokeWidth=1;shadow=0;" vertex="1" parent="1">
          <mxGeometry x="575" y="1160" width="140" height="40" as="geometry" />
        </mxCell>
        <mxCell id="E3upAqpC8sBwu24lGrVW-19" style="edgeStyle=orthogonalEdgeStyle;rounded=0;jumpSize=6;orthogonalLoop=1;jettySize=auto;html=1;exitX=0.5;exitY=1;exitDx=0;exitDy=0;entryX=0.5;entryY=0;entryDx=0;entryDy=0;strokeWidth=1;" edge="1" parent="1" source="E3upAqpC8sBwu24lGrVW-20" target="E3upAqpC8sBwu24lGrVW-22">
          <mxGeometry relative="1" as="geometry" />
        </mxCell>
        <mxCell id="E3upAqpC8sBwu24lGrVW-20" value="V3ParseImp::lexFile()" style="rounded=1;whiteSpace=wrap;html=1;fontSize=12;glass=0;strokeWidth=1;shadow=0;" vertex="1" parent="1">
          <mxGeometry x="575" y="1230" width="140" height="40" as="geometry" />
        </mxCell>
        <mxCell id="E3upAqpC8sBwu24lGrVW-21" style="edgeStyle=orthogonalEdgeStyle;rounded=0;jumpSize=6;orthogonalLoop=1;jettySize=auto;html=1;exitX=0.5;exitY=1;exitDx=0;exitDy=0;entryX=0.5;entryY=0;entryDx=0;entryDy=0;strokeWidth=1;" edge="1" parent="1" source="E3upAqpC8sBwu24lGrVW-22" target="E3upAqpC8sBwu24lGrVW-23">
          <mxGeometry relative="1" as="geometry" />
        </mxCell>
        <mxCell id="E3upAqpC8sBwu24lGrVW-22" value="V3ParseImp::bisonParse()" style="rounded=1;whiteSpace=wrap;html=1;fontSize=12;glass=0;strokeWidth=1;shadow=0;" vertex="1" parent="1">
          <mxGeometry x="567.5" y="1300" width="155" height="40" as="geometry" />
        </mxCell>
        <mxCell id="E3upAqpC8sBwu24lGrVW-23" value="yyparse()" style="rounded=1;whiteSpace=wrap;html=1;fontSize=12;glass=0;strokeWidth=1;shadow=0;fillColor=#dae8fc;strokeColor=#6c8ebf;" vertex="1" parent="1">
          <mxGeometry x="592.5" y="1370" width="105" height="40" as="geometry" />
        </mxCell>
        <mxCell id="E3upAqpC8sBwu24lGrVW-24" value="" style="edgeStyle=orthogonalEdgeStyle;rounded=0;jumpSize=6;orthogonalLoop=1;jettySize=auto;html=1;strokeWidth=1;" edge="1" parent="1" source="E3upAqpC8sBwu24lGrVW-25" target="E3upAqpC8sBwu24lGrVW-28">
          <mxGeometry relative="1" as="geometry" />
        </mxCell>
        <mxCell id="E3upAqpC8sBwu24lGrVW-25" value="verilog.y" style="strokeWidth=1;html=1;shape=mxgraph.flowchart.document2;whiteSpace=wrap;size=0.25;" vertex="1" parent="1">
          <mxGeometry x="75" y="1220" width="90" height="40" as="geometry" />
        </mxCell>
        <mxCell id="E3upAqpC8sBwu24lGrVW-26" value="Makefile_obj.in" style="text;html=1;strokeColor=none;fillColor=none;align=center;verticalAlign=middle;whiteSpace=wrap;rounded=0;" vertex="1" parent="1">
          <mxGeometry x="205" y="1170" width="90" height="20" as="geometry" />
        </mxCell>
        <mxCell id="E3upAqpC8sBwu24lGrVW-27" value="" style="edgeStyle=orthogonalEdgeStyle;rounded=0;jumpSize=6;orthogonalLoop=1;jettySize=auto;html=1;strokeWidth=1;" edge="1" parent="1" source="E3upAqpC8sBwu24lGrVW-28" target="E3upAqpC8sBwu24lGrVW-30">
          <mxGeometry relative="1" as="geometry" />
        </mxCell>
        <mxCell id="E3upAqpC8sBwu24lGrVW-28" value="&lt;span&gt;bisonpre&lt;/span&gt;&lt;br&gt;&lt;span&gt;(python脚本)&lt;/span&gt;" style="shape=step;perimeter=stepPerimeter;whiteSpace=wrap;html=1;fixedSize=1;strokeWidth=1;" vertex="1" parent="1">
          <mxGeometry x="184" y="1215" width="120" height="50" as="geometry" />
        </mxCell>
        <mxCell id="E3upAqpC8sBwu24lGrVW-29" value="#include" style="edgeStyle=orthogonalEdgeStyle;rounded=0;jumpSize=6;orthogonalLoop=1;jettySize=auto;html=1;strokeWidth=1;exitX=0.5;exitY=0;exitDx=0;exitDy=0;exitPerimeter=0;dashed=1;dashPattern=1 4;" edge="1" parent="1" source="E3upAqpC8sBwu24lGrVW-31" target="E3upAqpC8sBwu24lGrVW-30">
          <mxGeometry relative="1" as="geometry">
            <mxPoint x="460" y="1300" as="sourcePoint" />
          </mxGeometry>
        </mxCell>
        <mxCell id="E3upAqpC8sBwu24lGrVW-30" value="V3ParseBison.c" style="strokeWidth=1;html=1;shape=mxgraph.flowchart.document2;whiteSpace=wrap;size=0.25;" vertex="1" parent="1">
          <mxGeometry x="339" y="1220" width="90" height="40" as="geometry" />
        </mxCell>
        <mxCell id="E3upAqpC8sBwu24lGrVW-31" value="V3ParseGrammar.cpp" style="strokeWidth=1;html=1;shape=mxgraph.flowchart.document2;whiteSpace=wrap;size=0.25;" vertex="1" parent="1">
          <mxGeometry x="319" y="1335" width="130" height="50" as="geometry" />
        </mxCell>
        <mxCell id="E3upAqpC8sBwu24lGrVW-32" style="edgeStyle=orthogonalEdgeStyle;rounded=0;orthogonalLoop=1;jettySize=auto;html=1;exitX=1;exitY=0.5;exitDx=0;exitDy=0;entryX=0;entryY=0.5;entryDx=0;entryDy=0;strokeWidth=1;jumpSize=6;exitPerimeter=0;dashed=1;dashPattern=1 4;" edge="1" parent="1" source="E3upAqpC8sBwu24lGrVW-31" target="E3upAqpC8sBwu24lGrVW-22">
          <mxGeometry relative="1" as="geometry">
            <mxPoint x="460" y="1160" as="sourcePoint" />
            <mxPoint x="460" y="1335" as="targetPoint" />
          </mxGeometry>
        </mxCell>
        <mxCell id="E3upAqpC8sBwu24lGrVW-33" value="怎么生成AST的？" style="text;html=1;align=center;verticalAlign=middle;resizable=0;points=[];autosize=1;strokeColor=#666666;fillColor=#f5f5f5;fontColor=#FF0000;" vertex="1" parent="1">
          <mxGeometry x="592.5" y="1450" width="110" height="20" as="geometry" />
        </mxCell>
        <mxCell id="E3upAqpC8sBwu24lGrVW-34" value="&lt;font style=&quot;font-size: 11px&quot;&gt;$(PYTHON3) $(BISONPRE) --yacc ${YACC} -d -v -o V3ParseBison.c $&amp;lt;&lt;/font&gt;" style="text;whiteSpace=wrap;html=1;fontSize=4;verticalAlign=middle;align=center;" vertex="1" parent="1">
          <mxGeometry x="53" y="1190" width="394" height="20" as="geometry" />
        </mxCell>
        <mxCell id="E3upAqpC8sBwu24lGrVW-35" value="" style="rounded=0;whiteSpace=wrap;html=1;strokeWidth=1;" vertex="1" parent="1">
          <mxGeometry x="50" y="1419" width="400" height="110" as="geometry" />
        </mxCell>
        <mxCell id="E3upAqpC8sBwu24lGrVW-36" value="" style="edgeStyle=orthogonalEdgeStyle;rounded=0;jumpSize=6;orthogonalLoop=1;jettySize=auto;html=1;strokeWidth=1;" edge="1" parent="1" source="E3upAqpC8sBwu24lGrVW-37" target="E3upAqpC8sBwu24lGrVW-40">
          <mxGeometry relative="1" as="geometry" />
        </mxCell>
        <mxCell id="E3upAqpC8sBwu24lGrVW-37" value="verilog.l" style="strokeWidth=1;html=1;shape=mxgraph.flowchart.document2;whiteSpace=wrap;size=0.25;" vertex="1" parent="1">
          <mxGeometry x="75" y="1469" width="85" height="40" as="geometry" />
        </mxCell>
        <mxCell id="E3upAqpC8sBwu24lGrVW-38" value="Makefile_obj.in" style="text;html=1;strokeColor=none;fillColor=none;align=center;verticalAlign=middle;whiteSpace=wrap;rounded=0;" vertex="1" parent="1">
          <mxGeometry x="205" y="1419" width="90" height="20" as="geometry" />
        </mxCell>
        <mxCell id="E3upAqpC8sBwu24lGrVW-39" value="" style="edgeStyle=orthogonalEdgeStyle;rounded=0;jumpSize=6;orthogonalLoop=1;jettySize=auto;html=1;strokeWidth=1;" edge="1" parent="1" source="E3upAqpC8sBwu24lGrVW-40" target="E3upAqpC8sBwu24lGrVW-41">
          <mxGeometry relative="1" as="geometry" />
        </mxCell>
        <mxCell id="E3upAqpC8sBwu24lGrVW-40" value="flex &amp;amp;&lt;br&gt;flexfix(py)" style="shape=step;perimeter=stepPerimeter;whiteSpace=wrap;html=1;fixedSize=1;strokeWidth=1;" vertex="1" parent="1">
          <mxGeometry x="170" y="1464" width="100" height="50" as="geometry" />
        </mxCell>
        <mxCell id="E3upAqpC8sBwu24lGrVW-41" value="V3Lexer_pregen.yy.cpp&lt;br&gt;&amp;amp;&amp;nbsp;V3Lexer.yy.cpp" style="strokeWidth=1;html=1;shape=mxgraph.flowchart.document2;whiteSpace=wrap;size=0.25;" vertex="1" parent="1">
          <mxGeometry x="300" y="1461.5" width="129" height="55" as="geometry" />
        </mxCell>
        <mxCell id="E3upAqpC8sBwu24lGrVW-42" value="${LEX} ${LFLAGS} -o$@ $&amp;lt;" style="text;whiteSpace=wrap;html=1;fontSize=4;verticalAlign=middle;align=center;" vertex="1" parent="1">
          <mxGeometry x="167.5" y="1439" width="165" height="20" as="geometry" />
        </mxCell>
        <mxCell id="E3upAqpC8sBwu24lGrVW-43" value="" style="rounded=0;whiteSpace=wrap;html=1;strokeWidth=1;" vertex="1" parent="1">
          <mxGeometry x="49" y="1030" width="400" height="110" as="geometry" />
        </mxCell>
        <mxCell id="E3upAqpC8sBwu24lGrVW-44" value="" style="edgeStyle=orthogonalEdgeStyle;rounded=0;jumpSize=6;orthogonalLoop=1;jettySize=auto;html=1;strokeWidth=1;" edge="1" parent="1" source="E3upAqpC8sBwu24lGrVW-45" target="E3upAqpC8sBwu24lGrVW-48">
          <mxGeometry relative="1" as="geometry" />
        </mxCell>
        <mxCell id="E3upAqpC8sBwu24lGrVW-45" value="?" style="strokeWidth=1;html=1;shape=mxgraph.flowchart.document2;whiteSpace=wrap;size=0.25;" vertex="1" parent="1">
          <mxGeometry x="74" y="1080" width="56" height="40" as="geometry" />
        </mxCell>
        <mxCell id="E3upAqpC8sBwu24lGrVW-46" value="Makefile_obj.in" style="text;html=1;strokeColor=none;fillColor=none;align=center;verticalAlign=middle;whiteSpace=wrap;rounded=0;" vertex="1" parent="1">
          <mxGeometry x="204" y="1030" width="90" height="20" as="geometry" />
        </mxCell>
        <mxCell id="E3upAqpC8sBwu24lGrVW-47" value="" style="edgeStyle=orthogonalEdgeStyle;rounded=0;jumpSize=6;orthogonalLoop=1;jettySize=auto;html=1;strokeWidth=1;" edge="1" parent="1" source="E3upAqpC8sBwu24lGrVW-48" target="E3upAqpC8sBwu24lGrVW-49">
          <mxGeometry relative="1" as="geometry" />
        </mxCell>
        <mxCell id="E3upAqpC8sBwu24lGrVW-48" value="&lt;span&gt;astgen&lt;/span&gt;&lt;br&gt;&lt;span&gt;(python脚本)&lt;/span&gt;" style="shape=step;perimeter=stepPerimeter;whiteSpace=wrap;html=1;fixedSize=1;strokeWidth=1;" vertex="1" parent="1">
          <mxGeometry x="160" y="1075" width="97" height="50" as="geometry" />
        </mxCell>
        <mxCell id="E3upAqpC8sBwu24lGrVW-49" value="%__gen.cpp&lt;br&gt;V3Ast__gen_classes.h" style="strokeWidth=1;html=1;shape=mxgraph.flowchart.document2;whiteSpace=wrap;size=0.25;" vertex="1" parent="1">
          <mxGeometry x="290" y="1080" width="138" height="40" as="geometry" />
        </mxCell>
        <mxCell id="E3upAqpC8sBwu24lGrVW-50" value="&lt;font style=&quot;font-size: 11px&quot;&gt;$(PYTHON3) $(ASTGEN) -I $(srcdir) $*.cpp / --classes&lt;/font&gt;" style="text;whiteSpace=wrap;html=1;fontSize=4;verticalAlign=middle;align=center;" vertex="1" parent="1">
          <mxGeometry x="52" y="1050" width="394" height="20" as="geometry" />
        </mxCell>
      </root>
    </mxGraphModel>
  </diagram>
</mxfile>
